<svg width="134" height="152" viewBox="0 0 134 152" fill="none" xmlns="http://www.w3.org/2000/svg">
<path d="M13.5 46.5C14 41.4557 19.1934 38.9747 28.4742 37.4359C24.2577 37.0434 22 36.5 18 36C14 35.5 11.2582 35 8 35C8 35 3.5 34.5 2 36.9359C0.5 39.3717 0.5 41.5 0.5 41.5C0.116681 67.9908 0.383319 82.7989 0 109.29C2.94465 116.827 6.38007 119.339 12.7601 123.359V97.2303L58.4022 116.827V148.985C58.4022 148.985 60.8561 152 64.7823 152C68.2177 151.498 69.69 150.493 71.6531 148.985C71.6531 148.985 72.1439 64.067 71.6531 59.5447C71.1624 55.0225 68.4414 52.8738 64.7823 53.0126C61.2611 53.1461 58.4022 55.0225 58.4022 59.5447V101.753L12.7601 80.1462L13.5 46.5Z" fill="url(#paint0_linear_0_1)"/>
<path d="M43.7048 28.3913L28 22.3616L61.8635 0.755236C64.3551 -0.279092 65.7519 -0.224022 68.2435 0.755236L125.664 32.9136C125.664 32.9136 129.153 34.5265 130.572 36.4309C131.824 38.1113 132.044 42.9631 132.044 42.9631C132.428 70.4351 133.133 84.3301 133.517 111.802L132.535 114.314L131.063 115.822L87.8745 140.443V80.1462H102.107V116.827L117.812 106.275V46.4804L66.2804 14.8245L43.7048 28.3913Z" fill="url(#paint1_linear_0_1)"/>
<path d="M102 70.5C102 74.6421 98.6421 78 94.5 78C90.3579 78 87 74.6421 87 70.5C87 66.3579 90.3579 63 94.5 63C98.6421 63 102 66.3579 102 70.5Z" fill="#035DB0" fill-opacity="0.97"/>
<defs>
<linearGradient id="paint0_linear_0_1" x1="62.5738" y1="0.755234" x2="62.5738" y2="152" gradientUnits="userSpaceOnUse">
<stop offset="0.47" stop-color="#035DB0" stop-opacity="0.97"/>
<stop offset="0.79" stop-color="#035DB0" stop-opacity="0.97"/>
<stop offset="1" stop-color="#235E94" stop-opacity="0.79"/>
</linearGradient>
<linearGradient id="paint1_linear_0_1" x1="80.7583" y1="140.443" x2="80.7583" y2="0" gradientUnits="userSpaceOnUse">
<stop stop-color="#161718"/>
<stop offset="0.816416" stop-color="#262727"/>
<stop offset="0.926945" stop-color="#424242" stop-opacity="0.9"/>
</linearGradient>
</defs>
</svg>
